<?xml version="1.0" encoding="UTF-8"?><svg id="Layer_1" xmlns="http://www.w3.org/2000/svg" viewBox="2000 3750 6500 2500"><defs><style>.cls-1{font-size:1276.41px;}.cls-1,.cls-2{fill:#ffffff;font-family:CirceRounded-ExtraBold, 'Circe Rounded';font-weight:700;}.cls-3{fill:#e6852b;}.cls-2{font-size:374.47px;}.cls-4{letter-spacing:.02em;}.cls-5{letter-spacing:-.13em;}.cls-6{letter-spacing:0em;}</style></defs><path class="cls-3" d="M4153.45,4594.15c0,20.67-5.75,41.58-17.77,60.23-32.9,51.06-100.66,66.33-152.28,34.32l-103.3-64.05c-3.47-2.15-7.95.35-7.95,4.43v464.52c0,7.97-7.68,13.71-15.31,11.43-88.54-26.39-136.81-5.54-160.69,14.08-7.85,6.44-19.65.68-19.45-9.47l11.01-572.47c.38-19.89-9.19-38.66-25.51-50.04l-553.71-386.04c-.17-.12-.36-.21-.57-.26l-3.77-.98h0s-3.79.98-3.79.98c-.2.05-.39.14-.56.26l-553.7,386.04c-16.32,11.38-25.89,30.15-25.51,50.04l11.01,572.47c.2,10.15-11.6,15.91-19.45,9.47-23.88-19.62-72.16-40.47-160.69-14.08-7.63,2.28-15.31-3.46-15.31-11.43v-464.52c0-4.08-4.48-6.58-7.95-4.43l-103.3,64.05c-51.63,32.01-119.38,16.74-152.29-34.32-12.01-18.65-17.76-39.55-17.76-60.23,0-35.88,17.32-71.08,49.28-92.54l314.74-211.39v-298.07c0-17.77,14.41-32.17,32.17-32.17h179.24c17.76,0,32.17,14.4,32.17,32.17v134.47l429.72-288.62c3.54-2.38,7.71-3.65,11.98-3.65,2.13,0,4.24.32,6.25.93,2.02.62,3.95,1.53,5.72,2.72l988.05,663.61c31.96,21.46,49.28,56.65,49.28,92.54Z"/><path class="cls-3" d="M3503.31,4890.36c-55.09,129.39-209.35,269.54-395.08,413.11-185.72-143.57-339.98-283.72-395.07-413.11-33.81-79.42-18.42-171.09,38.52-235.97,52.24-59.53,113.26-85.22,183.73-74.46,55.42,8.46,105.34,38.27,140.16,82.21l31.13,39.29v1.41l3.07-1.41,31.13-39.29c34.82-43.94,84.73-73.75,140.15-82.21,70.48-10.76,131.5,14.93,183.74,74.46,56.94,64.88,72.33,156.55,38.52,235.97Z"/><path class="cls-3" d="M3056.2,6106.67c-.81,15.72-13.21,28.36-28.91,29.49-73.46,5.31-262.96,13.7-280.58-39.16-22.98-68.94,1.53-144-147.06-235.91-148.6-91.91-292.6-130.21-409.02-349.28-107.02-201.36-129.9-460.97-122.2-553.96,1.04-12.6,12-22.09,24.61-21.18,32.85,2.37,92.53,20.9,106.78,121.69,19.91,140.94,68.94,392.17,381.45,513.19,0,0,33.7-3.06-24.51-55.15-58.21-52.09-211.4-196.09-179.23-281.87,32.17-85.79,122.55,10.72,122.55,10.72,0,0,152.8,138.64,307.91,212.94,182.3,87.32,277.28,333.96,260.43,504-7.81,78.83-11.01,121.45-12.2,144.48Z"/><path class="cls-3" d="M3160.27,6106.67c.81,15.72,13.21,28.36,28.91,29.49,73.46,5.31,262.96,13.7,280.58-39.16,22.98-68.94-1.53-144,147.06-235.91,148.6-91.91,292.6-130.21,409.02-349.28,107.02-201.36,129.9-460.97,122.2-553.96-1.04-12.6-12-22.09-24.61-21.18-32.85,2.37-92.53,20.9-106.78,121.69-19.91,140.94-68.94,392.17-381.45,513.19,0,0-33.7-3.06,24.51-55.15,58.21-52.09,211.4-196.09,179.23-281.87-32.17-85.79-122.55,10.72-122.55,10.72,0,0-152.8,138.64-307.91,212.94-182.3,87.32-277.28,333.96-260.43,504,7.81,78.83,11.01,121.45,12.2,144.48Z"/><text class="cls-1" transform="translate(4508.4 5211.62) scale(1.09 1)"><tspan class="cls-4" x="0" y="0">V</tspan><tspan x="865.38" y="0">ishy</tspan></text><text class="cls-2" transform="translate(4609.15 5742.79) scale(1.14 1)"><tspan class="cls-5" x="0" y="0">T</tspan><tspan class="cls-6" x="175.25" y="0">een Care Housing </tspan></text></svg>
