<svg width="400" height="120" viewBox="0 0 400 120" fill="none" xmlns="http://www.w3.org/2000/svg">
  <!-- ICON (Moved and scaled for better horizontal fit) -->
  <g id="icon" transform="translate(10, 10) scale(0.8)">
    <path d="M60 40V30H70V40" fill="#F47C20"/>
    <path d="M30 60L80 20L130 60" stroke="#F47C20" stroke-width="10" stroke-linecap="round" stroke-linejoin="round"/>
    <path d="M50 60V95H110V60" stroke="#F47C20" stroke-width="10" stroke-linecap="round" stroke-linejoin="round" fill="none"/>
    <path d="M80 68C80 68 74 61 70 61C65 61 62 64 62 69C62 75 68 81 80 88C92 81 98 75 98 69C98 64 95 61 90 61C86 61 80 68 80 68Z" fill="#F47C20"/>
    <path d="M30 95C30 95 25 120 45 130" stroke="#F47C20" stroke-width="10" stroke-linecap="round" fill="none"/>
    <path d="M130 95C130 95 135 120 115 130" stroke="#F47C20" stroke-width="10" stroke-linecap="round" fill="none"/>
    <path d="M45 130C65 140 95 140 115 130" stroke="#F47C20" stroke-width="10" stroke-linecap="round" fill="none"/>
  </g>

  <!-- TEXT (Adjusted for better readability) -->
  <g id="text" transform="translate(140, 30)">
    <text x="0" y="45" font-family="'Poppins', sans-serif" font-weight="700" font-size="56" fill="#111111">Vishy</text>
    <text x="2" y="75" font-family="'Inter', sans-serif" font-weight="600" font-size="20" fill="#4A4A4A">TEEN CARE HOUSING</text>
  </g>
</svg>
